<mxfile host="Electron" modified="2023-12-19T14:24:29.531Z" agent="Mozilla/5.0 (Windows NT 10.0; Win64; x64) AppleWebKit/537.36 (KHTML, like Gecko) draw.io/22.1.2 Chrome/114.0.5735.289 Electron/25.9.4 Safari/537.36" etag="mhYr9ryGrXPACRF3wYUo" version="22.1.2" type="device">
  <diagram id="0Na6Mv3O4o3yXDMiN6NL" name="第 1 页">
    <mxGraphModel dx="1480" dy="866" grid="1" gridSize="10" guides="1" tooltips="1" connect="1" arrows="1" fold="1" page="1" pageScale="1" pageWidth="2336" pageHeight="1654" math="0" shadow="0">
      <root>
        <mxCell id="0" />
        <mxCell id="1" parent="0" />
        <mxCell id="GFh3eW6jJCoq_riX4eAA-8" style="edgeStyle=orthogonalEdgeStyle;rounded=0;orthogonalLoop=1;jettySize=auto;html=1;exitX=0.5;exitY=1;exitDx=0;exitDy=0;" edge="1" parent="1" source="IhQbrT6n3mvPCIu00S9Z-1">
          <mxGeometry relative="1" as="geometry">
            <mxPoint x="370.41176470588243" y="320" as="targetPoint" />
          </mxGeometry>
        </mxCell>
        <mxCell id="IhQbrT6n3mvPCIu00S9Z-1" value="&lt;font style=&quot;font-size: 20px;&quot;&gt;doctor&lt;/font&gt;" style="rounded=1;whiteSpace=wrap;html=1;" parent="1" vertex="1">
          <mxGeometry x="310" y="190" width="120" height="60" as="geometry" />
        </mxCell>
        <mxCell id="IhQbrT6n3mvPCIu00S9Z-6" value="" style="edgeStyle=orthogonalEdgeStyle;rounded=0;orthogonalLoop=1;jettySize=auto;html=1;" parent="1" source="IhQbrT6n3mvPCIu00S9Z-2" target="IhQbrT6n3mvPCIu00S9Z-5" edge="1">
          <mxGeometry relative="1" as="geometry" />
        </mxCell>
        <mxCell id="IhQbrT6n3mvPCIu00S9Z-2" value="&lt;font style=&quot;font-size: 16px;&quot;&gt;Access Patient&amp;nbsp;Records&lt;/font&gt;" style="rounded=1;whiteSpace=wrap;html=1;" parent="1" vertex="1">
          <mxGeometry x="300" y="580" width="140" height="70" as="geometry" />
        </mxCell>
        <mxCell id="IhQbrT6n3mvPCIu00S9Z-4" value="&lt;font style=&quot;font-size: 20px;&quot;&gt;start&lt;/font&gt;" style="text;html=1;align=center;verticalAlign=middle;resizable=0;points=[];autosize=1;strokeColor=none;fillColor=none;" parent="1" vertex="1">
          <mxGeometry x="380" y="270" width="60" height="40" as="geometry" />
        </mxCell>
        <mxCell id="IhQbrT6n3mvPCIu00S9Z-8" value="" style="edgeStyle=orthogonalEdgeStyle;rounded=0;orthogonalLoop=1;jettySize=auto;html=1;" parent="1" source="IhQbrT6n3mvPCIu00S9Z-5" edge="1">
          <mxGeometry relative="1" as="geometry">
            <mxPoint x="369.9999999999998" y="880" as="targetPoint" />
          </mxGeometry>
        </mxCell>
        <mxCell id="IhQbrT6n3mvPCIu00S9Z-5" value="&lt;font style=&quot;font-size: 16px;&quot;&gt;Diagnose Medical&amp;nbsp; Conditions&lt;/font&gt;" style="rounded=1;whiteSpace=wrap;html=1;" parent="1" vertex="1">
          <mxGeometry x="300" y="710" width="140" height="70" as="geometry" />
        </mxCell>
        <mxCell id="GFh3eW6jJCoq_riX4eAA-35" style="edgeStyle=orthogonalEdgeStyle;rounded=0;orthogonalLoop=1;jettySize=auto;html=1;entryX=0.5;entryY=0;entryDx=0;entryDy=0;" edge="1" parent="1" source="IhQbrT6n3mvPCIu00S9Z-13" target="GFh3eW6jJCoq_riX4eAA-5">
          <mxGeometry relative="1" as="geometry" />
        </mxCell>
        <mxCell id="IhQbrT6n3mvPCIu00S9Z-13" value="&lt;font style=&quot;font-size: 16px;&quot;&gt; Complete Activities&amp;nbsp; and Save Records &lt;/font&gt;" style="rounded=1;whiteSpace=wrap;html=1;" parent="1" vertex="1">
          <mxGeometry x="270" y="1260" width="140" height="70" as="geometry" />
        </mxCell>
        <mxCell id="GFh3eW6jJCoq_riX4eAA-2" value="&lt;font style=&quot;font-size: 21px;&quot;&gt;Doctor Subsystem&amp;nbsp;&lt;/font&gt;" style="rounded=0;whiteSpace=wrap;html=1;fillColor=none;" vertex="1" parent="1">
          <mxGeometry x="155" y="60" width="435" height="100" as="geometry" />
        </mxCell>
        <mxCell id="GFh3eW6jJCoq_riX4eAA-3" value="&lt;font style=&quot;font-size: 20px;&quot;&gt;Hospital Management System&lt;/font&gt;" style="whiteSpace=wrap;html=1;fillColor=none;" vertex="1" parent="1">
          <mxGeometry x="820" y="55" width="300" height="110" as="geometry" />
        </mxCell>
        <mxCell id="GFh3eW6jJCoq_riX4eAA-4" value="" style="shape=waypoint;sketch=0;fillStyle=solid;size=6;pointerEvents=1;points=[];fillColor=none;resizable=0;rotatable=0;perimeter=centerPerimeter;snapToPoint=1;strokeWidth=13;" vertex="1" parent="1">
          <mxGeometry x="50" y="210" width="20" height="20" as="geometry" />
        </mxCell>
        <mxCell id="GFh3eW6jJCoq_riX4eAA-5" value="" style="ellipse;html=1;shape=endState;fillColor=#000000;strokeColor=#ff0000;" vertex="1" parent="1">
          <mxGeometry x="325" y="1410" width="30" height="30" as="geometry" />
        </mxCell>
        <mxCell id="GFh3eW6jJCoq_riX4eAA-6" value="" style="endArrow=classic;html=1;rounded=0;entryX=0;entryY=0.5;entryDx=0;entryDy=0;exitX=1.256;exitY=0.562;exitDx=0;exitDy=0;exitPerimeter=0;" edge="1" parent="1" source="GFh3eW6jJCoq_riX4eAA-4" target="IhQbrT6n3mvPCIu00S9Z-1">
          <mxGeometry width="50" height="50" relative="1" as="geometry">
            <mxPoint x="70" y="240" as="sourcePoint" />
            <mxPoint x="120" y="190" as="targetPoint" />
          </mxGeometry>
        </mxCell>
        <mxCell id="GFh3eW6jJCoq_riX4eAA-10" style="edgeStyle=orthogonalEdgeStyle;rounded=0;orthogonalLoop=1;jettySize=auto;html=1;exitX=0.5;exitY=1;exitDx=0;exitDy=0;" edge="1" parent="1" source="GFh3eW6jJCoq_riX4eAA-9">
          <mxGeometry relative="1" as="geometry">
            <mxPoint x="370.41176470588243" y="440" as="targetPoint" />
          </mxGeometry>
        </mxCell>
        <mxCell id="GFh3eW6jJCoq_riX4eAA-9" value="&lt;font style=&quot;font-size: 20px;&quot;&gt;Login&lt;/font&gt;" style="rounded=1;whiteSpace=wrap;html=1;" vertex="1" parent="1">
          <mxGeometry x="310" y="320" width="120" height="60" as="geometry" />
        </mxCell>
        <mxCell id="GFh3eW6jJCoq_riX4eAA-12" style="edgeStyle=orthogonalEdgeStyle;rounded=0;orthogonalLoop=1;jettySize=auto;html=1;entryX=0;entryY=0.5;entryDx=0;entryDy=0;" edge="1" parent="1" source="GFh3eW6jJCoq_riX4eAA-11" target="GFh3eW6jJCoq_riX4eAA-9">
          <mxGeometry relative="1" as="geometry">
            <mxPoint x="180" y="350" as="targetPoint" />
            <Array as="points">
              <mxPoint x="181" y="480" />
              <mxPoint x="181" y="350" />
            </Array>
          </mxGeometry>
        </mxCell>
        <mxCell id="GFh3eW6jJCoq_riX4eAA-25" style="edgeStyle=orthogonalEdgeStyle;rounded=0;orthogonalLoop=1;jettySize=auto;html=1;exitX=0.5;exitY=1;exitDx=0;exitDy=0;entryX=0.52;entryY=0;entryDx=0;entryDy=0;entryPerimeter=0;" edge="1" parent="1" source="GFh3eW6jJCoq_riX4eAA-11" target="IhQbrT6n3mvPCIu00S9Z-2">
          <mxGeometry relative="1" as="geometry">
            <mxPoint x="372.7647058823529" y="570" as="targetPoint" />
          </mxGeometry>
        </mxCell>
        <mxCell id="GFh3eW6jJCoq_riX4eAA-26" value="&lt;font style=&quot;font-size: 16px;&quot;&gt;pass&lt;/font&gt;" style="edgeLabel;html=1;align=center;verticalAlign=middle;resizable=0;points=[];" vertex="1" connectable="0" parent="GFh3eW6jJCoq_riX4eAA-25">
          <mxGeometry x="-0.1815" y="4" relative="1" as="geometry">
            <mxPoint as="offset" />
          </mxGeometry>
        </mxCell>
        <mxCell id="GFh3eW6jJCoq_riX4eAA-11" value="Authentication and authorization" style="rhombus;whiteSpace=wrap;html=1;" vertex="1" parent="1">
          <mxGeometry x="298.75" y="440" width="147.5" height="80" as="geometry" />
        </mxCell>
        <mxCell id="GFh3eW6jJCoq_riX4eAA-13" value="ID and Passwo wrong" style="text;html=1;align=center;verticalAlign=middle;resizable=0;points=[];autosize=1;strokeColor=none;fillColor=none;" vertex="1" parent="1">
          <mxGeometry x="170" y="390" width="140" height="30" as="geometry" />
        </mxCell>
        <mxCell id="GFh3eW6jJCoq_riX4eAA-16" style="edgeStyle=orthogonalEdgeStyle;rounded=0;orthogonalLoop=1;jettySize=auto;html=1;exitX=0.5;exitY=1;exitDx=0;exitDy=0;entryX=1;entryY=0.5;entryDx=0;entryDy=0;" edge="1" parent="1" source="GFh3eW6jJCoq_riX4eAA-15" target="GFh3eW6jJCoq_riX4eAA-11">
          <mxGeometry relative="1" as="geometry" />
        </mxCell>
        <mxCell id="GFh3eW6jJCoq_riX4eAA-15" value="&lt;font style=&quot;font-size: 20px;&quot;&gt;Database&lt;/font&gt;" style="rounded=1;whiteSpace=wrap;html=1;" vertex="1" parent="1">
          <mxGeometry x="930" y="190" width="120" height="60" as="geometry" />
        </mxCell>
        <mxCell id="GFh3eW6jJCoq_riX4eAA-19" style="edgeStyle=orthogonalEdgeStyle;rounded=0;orthogonalLoop=1;jettySize=auto;html=1;" edge="1" parent="1" source="GFh3eW6jJCoq_riX4eAA-18">
          <mxGeometry relative="1" as="geometry">
            <mxPoint x="199.99999999999977" y="1070" as="targetPoint" />
          </mxGeometry>
        </mxCell>
        <mxCell id="GFh3eW6jJCoq_riX4eAA-20" value="&lt;font style=&quot;font-size: 16px;&quot;&gt;yes&lt;/font&gt;" style="edgeLabel;html=1;align=center;verticalAlign=middle;resizable=0;points=[];" vertex="1" connectable="0" parent="GFh3eW6jJCoq_riX4eAA-19">
          <mxGeometry x="0.3932" y="6" relative="1" as="geometry">
            <mxPoint as="offset" />
          </mxGeometry>
        </mxCell>
        <mxCell id="GFh3eW6jJCoq_riX4eAA-22" style="edgeStyle=orthogonalEdgeStyle;rounded=0;orthogonalLoop=1;jettySize=auto;html=1;exitX=0.5;exitY=1;exitDx=0;exitDy=0;" edge="1" parent="1" source="GFh3eW6jJCoq_riX4eAA-18">
          <mxGeometry relative="1" as="geometry">
            <mxPoint x="371.5882352941178" y="1070" as="targetPoint" />
          </mxGeometry>
        </mxCell>
        <mxCell id="GFh3eW6jJCoq_riX4eAA-24" value="&lt;font style=&quot;font-size: 16px;&quot;&gt;No&lt;/font&gt;" style="edgeLabel;html=1;align=center;verticalAlign=middle;resizable=0;points=[];" vertex="1" connectable="0" parent="GFh3eW6jJCoq_riX4eAA-22">
          <mxGeometry x="-0.207" relative="1" as="geometry">
            <mxPoint as="offset" />
          </mxGeometry>
        </mxCell>
        <mxCell id="GFh3eW6jJCoq_riX4eAA-18" value="&lt;font style=&quot;font-size: 15px;&quot;&gt;Operation or not&lt;/font&gt;" style="rhombus;whiteSpace=wrap;html=1;" vertex="1" parent="1">
          <mxGeometry x="296.25" y="880" width="150" height="80" as="geometry" />
        </mxCell>
        <mxCell id="GFh3eW6jJCoq_riX4eAA-21" value="&lt;font style=&quot;font-size: 20px;&quot;&gt;Appointment&lt;br&gt;operation&amp;nbsp;&lt;/font&gt;" style="rounded=1;whiteSpace=wrap;html=1;" vertex="1" parent="1">
          <mxGeometry x="150" y="1070" width="120" height="60" as="geometry" />
        </mxCell>
        <mxCell id="GFh3eW6jJCoq_riX4eAA-23" value="&lt;font style=&quot;font-size: 19px;&quot;&gt;Prescribe and communicate&lt;/font&gt;" style="rounded=1;whiteSpace=wrap;html=1;" vertex="1" parent="1">
          <mxGeometry x="310" y="1070" width="120" height="60" as="geometry" />
        </mxCell>
        <mxCell id="GFh3eW6jJCoq_riX4eAA-34" style="edgeStyle=orthogonalEdgeStyle;rounded=0;orthogonalLoop=1;jettySize=auto;html=1;exitX=0.75;exitY=1;exitDx=0;exitDy=0;entryX=0.5;entryY=0;entryDx=0;entryDy=0;" edge="1" parent="1" source="GFh3eW6jJCoq_riX4eAA-29" target="IhQbrT6n3mvPCIu00S9Z-13">
          <mxGeometry relative="1" as="geometry">
            <Array as="points">
              <mxPoint x="1030" y="1240" />
              <mxPoint x="340" y="1240" />
            </Array>
          </mxGeometry>
        </mxCell>
        <mxCell id="GFh3eW6jJCoq_riX4eAA-29" value="&lt;font style=&quot;font-size: 17px;&quot;&gt;Patient records database&lt;/font&gt;" style="rounded=1;whiteSpace=wrap;html=1;" vertex="1" parent="1">
          <mxGeometry x="940" y="670" width="120" height="80" as="geometry" />
        </mxCell>
        <mxCell id="GFh3eW6jJCoq_riX4eAA-30" value="" style="endArrow=classic;html=1;rounded=0;entryX=0.5;entryY=1;entryDx=0;entryDy=0;exitX=0.427;exitY=1.048;exitDx=0;exitDy=0;exitPerimeter=0;dashed=1;" edge="1" parent="1" source="GFh3eW6jJCoq_riX4eAA-21" target="GFh3eW6jJCoq_riX4eAA-29">
          <mxGeometry width="50" height="50" relative="1" as="geometry">
            <mxPoint x="200" y="1200" as="sourcePoint" />
            <mxPoint x="250" y="1150" as="targetPoint" />
            <Array as="points">
              <mxPoint x="201" y="1200" />
              <mxPoint x="1000" y="1200" />
            </Array>
          </mxGeometry>
        </mxCell>
        <mxCell id="GFh3eW6jJCoq_riX4eAA-31" value="" style="endArrow=classic;html=1;rounded=0;exitX=1;exitY=0.5;exitDx=0;exitDy=0;entryX=0.15;entryY=1.03;entryDx=0;entryDy=0;entryPerimeter=0;dashed=1;" edge="1" parent="1" source="GFh3eW6jJCoq_riX4eAA-23" target="GFh3eW6jJCoq_riX4eAA-29">
          <mxGeometry width="50" height="50" relative="1" as="geometry">
            <mxPoint x="610" y="1050" as="sourcePoint" />
            <mxPoint x="960" y="860" as="targetPoint" />
            <Array as="points">
              <mxPoint x="960" y="1100" />
            </Array>
          </mxGeometry>
        </mxCell>
        <mxCell id="GFh3eW6jJCoq_riX4eAA-33" value="" style="endArrow=classic;html=1;rounded=0;entryX=1;entryY=0.5;entryDx=0;entryDy=0;exitX=0.5;exitY=0;exitDx=0;exitDy=0;dashed=1;" edge="1" parent="1" source="GFh3eW6jJCoq_riX4eAA-29" target="IhQbrT6n3mvPCIu00S9Z-2">
          <mxGeometry width="50" height="50" relative="1" as="geometry">
            <mxPoint x="1000" y="615" as="sourcePoint" />
            <mxPoint x="660" y="880" as="targetPoint" />
            <Array as="points">
              <mxPoint x="1000" y="610" />
            </Array>
          </mxGeometry>
        </mxCell>
        <mxCell id="GFh3eW6jJCoq_riX4eAA-38" value="" style="rounded=0;whiteSpace=wrap;html=1;fillColor=none;" vertex="1" parent="1">
          <mxGeometry x="160" y="160" width="430" height="1210" as="geometry" />
        </mxCell>
        <mxCell id="GFh3eW6jJCoq_riX4eAA-39" value="" style="rounded=0;whiteSpace=wrap;html=1;fillColor=none;" vertex="1" parent="1">
          <mxGeometry x="820" y="160" width="300" height="1210" as="geometry" />
        </mxCell>
      </root>
    </mxGraphModel>
  </diagram>
</mxfile>
